<svg width="514" height="514" xmlns="http://www.w3.org/2000/svg" xmlns:xlink="http://www.w3.org/1999/xlink" overflow="hidden"><defs><clipPath id="clip0"><rect x="1847" y="793" width="514" height="514"/></clipPath><clipPath id="clip1"><rect x="1939" y="885" width="331" height="331"/></clipPath><clipPath id="clip2"><rect x="1939" y="885" width="331" height="331"/></clipPath><clipPath id="clip3"><rect x="1939" y="885" width="331" height="331"/></clipPath></defs><g clip-path="url(#clip0)" transform="translate(-1847 -793)"><path d="M1857.5 1050C1857.5 913.862 1967.86 803.5 2104 803.5 2240.14 803.5 2350.5 913.862 2350.5 1050 2350.5 1186.14 2240.14 1296.5 2104 1296.5 1967.86 1296.5 1857.5 1186.14 1857.5 1050Z" stroke="#000000" stroke-width="20.625" stroke-miterlimit="8" fill="#FFFFFF" fill-rule="evenodd"/><g clip-path="url(#clip1)"><g clip-path="url(#clip2)"><g clip-path="url(#clip3)"><path d="M2225.69 957.531 2196.47 928.313 2104 1020.78 2011.53 928.313 1982.31 957.531 2074.78 1050 1982.31 1142.47 2011.53 1171.69 2104 1079.22 2196.47 1171.69 2225.69 1142.47 2133.22 1050Z"/></g></g></g></g></svg>