<?xml version="1.0" encoding="utf-8"?>
<!-- Generator: Adobe Illustrator 24.0.0, SVG Export Plug-In . SVG Version: 6.00 Build 0)  -->
<svg version="1.1" id="Warstwa_1" xmlns="http://www.w3.org/2000/svg" xmlns:xlink="http://www.w3.org/1999/xlink" x="0px" y="0px"
	 viewBox="0 0 280.02 280.11" style="enable-background:new 0 0 280.02 280.11;" xml:space="preserve">
<style type="text/css">
	.st0{fill:#252433;}
	.st1{fill:#FFFFFF;}
	.st2{fill:#00FFBC;}
</style>
<rect x="0" y="0" class="st0" width="280.02" height="280.11"/>
<g>
	<polygon class="st1" points="260.81,19.21 260.81,49.98 280.02,49.98 280.02,0 230.05,0 230.05,19.21 	"/>
	<polygon class="st1" points="19.21,19.21 49.98,19.21 49.98,0 0,0 0,49.98 19.21,49.98 	"/>
	<polygon class="st1" points="19.21,260.9 19.21,230.13 0,230.13 0,280.11 49.98,280.11 49.98,260.9 	"/>
	<polygon class="st1" points="260.81,260.9 230.05,260.9 230.05,280.11 280.02,280.11 280.02,230.13 260.81,230.13 	"/>
</g>
<g>
	<path class="st1" d="M237.66,136.16c9.36,4.1,16.38,9.92,18.81,19.21h21.4v-19.21H237.66z"/>
</g>
<g>
	<path class="st1" d="M18.22,178.8l10.77-12.74c7.9,7.1,18.14,11.84,29.05,11.84c12.11,0,18.52-5.33,18.52-12.6
		c0-9.27-7.13-11.76-17.28-16.04l-14.31-6.22c-10.93-4.26-22.21-12.34-22.21-27.61c0-16.56,14.91-29.34,36.16-29.34
		c12.76,0,24.81,4.96,33.33,13.25l-9.46,11.75c-7.08-5.64-14.28-8.89-24.76-8.89c-9.88,0-16.54,4.45-16.54,12.15
		c0,8.1,8.31,11.06,17.75,14.68l13.65,5.94c13.25,5.09,22.62,13,22.62,28.04c0,16.91-14.24,31-38.57,31
		C42.29,194.01,28.43,188.43,18.22,178.8z"/>
	<path class="st1" d="M102.71,88.01h32.3c21.45,0,36.93,6.52,36.93,25.59c0,9.82-5.72,19.41-18.02,22.59v0.64
		c15.05,2.56,23.38,10.61,23.38,24.7c0,20.83-16.62,30.57-39.62,30.57h-34.98V88.01z M133.37,130.78c14.56,0,20.5-5.26,20.5-14.96
		c0-9.49-6.64-13.05-20.09-13.05h-12.64v28H133.37z M135.78,177.33c15.26,0,23.45-5.25,23.45-17.02c0-10.97-7.88-15.46-23.45-15.46
		h-14.66v32.48H135.78z"/>
	<path class="st1" d="M180.12,178.8l10.77-12.74c7.9,7.1,18.14,11.84,29.05,11.84c12.11,0,18.52-5.33,18.52-12.6
		c0-9.27-7.13-11.76-17.28-16.04l-14.31-6.22c-10.93-4.26-22.21-12.34-22.21-27.61c0-16.56,14.91-29.34,36.16-29.34
		c12.76,0,24.81,4.96,33.33,13.25l-9.46,11.75c-7.08-5.64-14.28-8.89-24.76-8.89c-9.88,0-16.54,4.45-16.54,12.15
		c0,8.1,8.31,11.06,17.75,14.68l13.65,5.94c13.25,5.09,22.62,13,22.62,28.04c0,16.91-14.24,31-38.57,31
		C204.18,194.01,190.33,188.43,180.12,178.8z"/>
</g>
<rect x="2.16" y="136.16" class="st0" width="275.71" height="19.21"/>
<g>
	<path class="st2" d="M59.27,149.26l-14.31-6.22c-4.24-1.65-8.53-3.88-12.2-6.88l-32.76,0v19.21l71.66,0
		C68.62,153.08,64.32,151.39,59.27,149.26z"/>
</g>
<g>
	<path class="st2" d="M153.93,136.19v0.64c12.69,2.16,20.59,8.24,22.75,18.54h56.88c-3.05-2.29-7.35-3.98-12.39-6.11l-14.31-6.22
		c-4.24-1.65-8.53-3.88-12.2-6.88h-40.63C153.99,136.17,153.96,136.18,153.93,136.19z"/>
	<path class="st2" d="M102.71,136.16H75.76c9.36,4.1,16.38,9.92,18.81,19.21h8.14V136.16z"/>
	<path class="st2" d="M135.78,144.85h-14.66v10.52h37.43C156.37,147.99,148.75,144.85,135.78,144.85z"/>
</g>
<g>
	<path class="st2" d="M237.66,136.16c9.36,4.1,16.38,9.92,18.81,19.21l23.56,0v-19.21L237.66,136.16z"/>
</g>
</svg>
